<svg id="구성_요소_7_1" data-name="구성 요소 7 – 1" xmlns="http://www.w3.org/2000/svg" width="90.82" height="20" viewBox="0 0 90.82 20">
  <g id="구성_요소_6_1" data-name="구성 요소 6 – 1">
    <path id="패스_10" data-name="패스 10" d="M10,17.25h7.13V31.51h4.76V17.25h7.13V12.49H10Z" transform="translate(-10 -12)" fill="#fff"/>
    <rect id="사각형_3" data-name="사각형 3" width="4.75" height="19.02" transform="translate(64.18 0.49)" fill="#fff"/>
    <path id="패스_11" data-name="패스 11" d="M100.82,15.36,97.46,12l-6.64,6.64L84.18,12l-3.36,3.36L87.46,22l-6.64,6.64L84.18,32l6.64-6.64L97.46,32l3.36-3.36L94.18,22Z" transform="translate(-10 -12)" fill="#fff"/>
    <path id="패스_12" data-name="패스 12" d="M71.8,20.61V12.49H52.79V31.51h4.75V17.25h9.51v1.39l-5.67,5.67,7.03,7.66,3.5-3.21-3.95-4.31Z" transform="translate(-10 -12)" fill="#fff"/>
    <path id="패스_13" data-name="패스 13" d="M31.39,31.51H50.41V12.49H31.39Zm4.76-14.26h9.51v9.51H36.15Z" transform="translate(-10 -12)" fill="#fff"/>
  </g>
</svg>
